<svg xmlns="http://www.w3.org/2000/svg" class="unit-art" viewBox="0 0 200 200" role="img" aria-label="Crux, Climber form" data-art-id="crux-01"><defs>
      <linearGradient id="unit-12-body" x1="0" y1="0" x2=".9" y2="1" gradientUnits="objectBoundingBox"><stop stop-color="#b3c4ce"/><stop offset=".46" stop-color="#6d8492"/><stop offset="1" stop-color="#344852"/></linearGradient>
      <linearGradient id="unit-12-top" x1="0" y1="0" x2="1" y2="1"><stop stop-color="#b3c4ce"/><stop offset="1" stop-color="#6d8492"/></linearGradient>
      <linearGradient id="unit-12-side" x1="0" y1="0" x2="1" y2=".7"><stop stop-color="#344852"/><stop offset="1" stop-color="#1b2c35"/></linearGradient>
      <linearGradient id="unit-12-dark"><stop stop-color="#1b2c35"/><stop offset="1" stop-color="#13242d"/></linearGradient>
      <radialGradient id="unit-12-shadow"><stop stop-color="#000" stop-opacity=".5"/><stop offset="1" stop-color="#000" stop-opacity="0"/></radialGradient>
    </defs><ellipse class="cast-shadow" cx="104" cy="159" rx="75" ry="28" fill="url(#unit-12-shadow)"/>
    <g class="footing"><path d="M52 137 100 119 148 137V150L100 168 52 150Z" fill="#182831" stroke="#40545d" stroke-width=".7"/><path d="M52 137 100 119 148 137 100 155Z" fill="#263940"/>
    <path d="M57 147 100 163 143 147" fill="none" stroke="#80d9c4" stroke-width="2" /></g>
    <g class="sculpture"><path d="M95 49 108 46 123 58 143 131 129 143 114 98 109 142 95 151 88 96 67 140 52 132 77 64Z" fill="url(#unit-12-body)" /><path d="M77 64 95 49 108 46 123 58 102 75Z" fill="url(#unit-12-top)" /><path d="M102 75 123 58 143 131 129 143 111 83 109 142 95 151Z" fill="url(#unit-12-side)" /><path d="M77 64 102 75 88 96 67 140 52 132Z" fill="url(#unit-12-body)" /><path d="M82 70 98 78" fill="none" stroke="#80d9c4" stroke-width="2.7" stroke-linecap="round"/><path d="M78 64 102 75 122 58" fill="none" stroke="#b3c4ce" stroke-opacity=".66" stroke-width="1.1" stroke-linecap="round"/></g></svg>
