<svg xmlns="http://www.w3.org/2000/svg" class="unit-art" viewBox="0 0 200 200" role="img" aria-label="Relay, Generalist form" data-art-id="relay-01"><defs>
      <linearGradient id="unit-2-body" x1="0" y1="0" x2=".9" y2="1" gradientUnits="objectBoundingBox"><stop stop-color="#b3c4ce"/><stop offset=".46" stop-color="#6d8492"/><stop offset="1" stop-color="#344852"/></linearGradient>
      <linearGradient id="unit-2-top" x1="0" y1="0" x2="1" y2="1"><stop stop-color="#b3c4ce"/><stop offset="1" stop-color="#6d8492"/></linearGradient>
      <linearGradient id="unit-2-side" x1="0" y1="0" x2="1" y2=".7"><stop stop-color="#344852"/><stop offset="1" stop-color="#1b2c35"/></linearGradient>
      <linearGradient id="unit-2-dark"><stop stop-color="#1b2c35"/><stop offset="1" stop-color="#13242d"/></linearGradient>
      <radialGradient id="unit-2-shadow"><stop stop-color="#000" stop-opacity=".5"/><stop offset="1" stop-color="#000" stop-opacity="0"/></radialGradient>
    </defs><ellipse class="cast-shadow" cx="104" cy="159" rx="75" ry="28" fill="url(#unit-2-shadow)"/>
    <g class="footing"><path d="M52 137 100 119 148 137V150L100 168 52 150Z" fill="#182831" stroke="#40545d" stroke-width=".7"/><path d="M52 137 100 119 148 137 100 155Z" fill="#263940"/>
    <path d="M57 147 100 163 143 147" fill="none" stroke="#80d9c4" stroke-width="2" /></g>
    <g class="sculpture"><path d="M100 39 135 66 131 122 100 143 69 122 65 66Z" fill="url(#unit-2-body)" /><path d="M100 39 135 66 100 83 65 66Z" fill="url(#unit-2-top)" /><path d="M100 83 135 66 131 122 100 143Z" fill="url(#unit-2-side)" /><path d="M100 83 100 143 69 122 65 66Z" fill="url(#unit-2-body)" /><path d="M100 88v37" fill="none" stroke="#80d9c4" stroke-width="2.7" stroke-linecap="round"/><path d="M66 66 100 83 134 66" fill="none" stroke="#b3c4ce" stroke-opacity=".66" stroke-width="1.1" stroke-linecap="round"/></g></svg>
